<svg xmlns="http://www.w3.org/2000/svg" width="504.119" height="67.488" viewBox="0 0 504.119 67.488">
  <g id="Group_197" data-name="Group 197" transform="translate(1890.926 255.347)">
    <path id="Path_35" data-name="Path 35" d="M54.18-2.077v5.64H52.689V1.871A3.7,3.7,0,0,1,49.2,3.63a4.827,4.827,0,0,1-4.848-5.1,4.835,4.835,0,0,1,4.848-5.1,4.883,4.883,0,0,1,3.733,1.544l-.98.98A3.736,3.736,0,0,0,49.2-5.341c-2.095,0-3.344,1.544-3.344,3.868,0,2.028,1.249,3.868,3.478,3.868A3.135,3.135,0,0,0,52.689-.842H50.084V-2.077Zm9.642,4.4V3.563H56.866V-6.509h6.7v1.235h-5.21v2.981h4.257v1.249H58.356V2.327Zm11.24,1.235h-1.8l-5.4-8.017V3.563H66.373V-6.509h1.786l5.412,8.017V-6.509h1.491ZM84.7,2.327V3.563H77.748V-6.509h6.7v1.235h-5.21v2.981H83.5v1.249H79.239V2.327ZM94.722-2.937A3.525,3.525,0,0,1,92.56.367l2.162,3.2H93.017L91.043.635h-2.3V3.563H87.256V-6.509h3.908A3.534,3.534,0,0,1,94.722-2.937ZM88.746-.6h2.4a2.176,2.176,0,0,0,2.081-2.337A2.185,2.185,0,0,0,91.15-5.274h-2.4Zm15.336,4.163-.9-2.3H98.939l-.9,2.3H96.468L100.6-6.509h.913l4.136,10.072ZM99.422.031H102.7l-1.638-4.15Zm14.947,2.3V3.563H107.8V-6.509h1.491V2.327Zm309.576-.5a4.281,4.281,0,0,1-3.6,1.8,5.078,5.078,0,0,1-5.117-5.1,5.078,5.078,0,0,1,5.117-5.1,4.534,4.534,0,0,1,3.6,1.8l-.913.913a3.557,3.557,0,0,0-2.82-1.477,3.755,3.755,0,0,0-3.492,3.868,3.755,3.755,0,0,0,3.492,3.868,3.347,3.347,0,0,0,2.82-1.477Zm6.861-8.407a5.044,5.044,0,0,1,5.117,5.1,5.044,5.044,0,0,1-5.117,5.1,5.044,5.044,0,0,1-5.115-5.1A5.044,5.044,0,0,1,430.806-6.576Zm0,1.235a3.734,3.734,0,0,0-3.625,3.868,3.726,3.726,0,0,0,3.625,3.868,3.718,3.718,0,0,0,3.627-3.868A3.734,3.734,0,0,0,430.806-5.341ZM441.831-1.9c1.4.551,2.929,1.262,2.929,2.793,0,1.947-1.813,2.726-3.627,2.74a5.187,5.187,0,0,1-3.733-1.6l.993-.994a3.739,3.739,0,0,0,2.739,1.356c1.169-.013,2.136-.416,2.136-1.41,0-.873-.927-1.235-2.511-1.907-1.3-.551-2.86-1.209-2.86-2.914,0-1.343,1.276-2.74,3.371-2.74a4.685,4.685,0,0,1,3.6,1.625L443.874-4a3.868,3.868,0,0,0-2.781-1.343c-.913,0-1.7.51-1.7,1.37C439.389-2.762,440.784-2.319,441.831-1.9Zm17.109-4.606V3.563h-1.491V-4l-3.88,7.561h-.846L448.842-4V3.563h-1.49V-6.509h1.934l3.854,7.789,3.854-7.789Zm9.776,8.836V3.563h-6.956V-6.509h6.7v1.235h-5.212v2.981h4.257v1.249h-4.257V2.327Zm9.871-7.6h-3.117V3.563h-1.49V-5.274h-3.116V-6.509h7.723Zm2.283,8.836h1.491V-6.509h-1.491ZM493.493,1.83a4.28,4.28,0,0,1-3.6,1.8,5.077,5.077,0,0,1-5.115-5.1,5.077,5.077,0,0,1,5.115-5.1,4.534,4.534,0,0,1,3.6,1.8l-.913.913a3.557,3.557,0,0,0-2.82-1.477,3.755,3.755,0,0,0-3.492,3.868,3.755,3.755,0,0,0,3.492,3.868,3.347,3.347,0,0,0,2.82-1.477ZM264.624-6.576a5.044,5.044,0,0,1,5.115,5.1,5.044,5.044,0,0,1-5.115,5.1,5.045,5.045,0,0,1-5.117-5.1A5.045,5.045,0,0,1,264.624-6.576Zm0,1.235A3.735,3.735,0,0,0,261-1.473a3.727,3.727,0,0,0,3.627,3.868,3.718,3.718,0,0,0,3.626-3.868A3.734,3.734,0,0,0,264.624-5.341Zm14.865,2.4a3.524,3.524,0,0,1-2.162,3.3l2.162,3.2h-1.706L275.809.635h-2.3V3.563h-1.491V-6.509h3.908A3.534,3.534,0,0,1,279.489-2.937ZM273.514-.6h2.4A2.177,2.177,0,0,0,278-2.937a2.185,2.185,0,0,0-2.081-2.337h-2.4Zm15.578-4.673h-3.116V3.563h-1.49V-5.274H281.37V-6.509h7.721Zm10-1.235V3.563h-1.49V-.855h-4.741V3.563h-1.49V-6.509h1.49v4.418h4.741V-6.509Zm7.533-.067a5.045,5.045,0,0,1,5.117,5.1,5.045,5.045,0,0,1-5.117,5.1,5.044,5.044,0,0,1-5.115-5.1A5.044,5.044,0,0,1,306.629-6.576Zm0,1.235A3.734,3.734,0,0,0,303-1.473a3.726,3.726,0,0,0,3.625,3.868,3.717,3.717,0,0,0,3.626-3.868A3.734,3.734,0,0,0,306.629-5.341Zm16.021,3.868a4.837,4.837,0,0,1-4.7,5.036h-3.92V-6.509h3.92A4.846,4.846,0,0,1,322.651-1.473Zm-5,3.8a3.555,3.555,0,0,0,3.5-3.8,3.563,3.563,0,0,0-3.5-3.8h-2.136v7.6Zm12.394-8.9a5.044,5.044,0,0,1,5.117,5.1,5.044,5.044,0,0,1-5.117,5.1,5.044,5.044,0,0,1-5.115-5.1A5.044,5.044,0,0,1,330.049-6.576Zm0,1.235a3.734,3.734,0,0,0-3.625,3.868,3.726,3.726,0,0,0,3.625,3.868,3.718,3.718,0,0,0,3.627-3.868A3.734,3.734,0,0,0,330.049-5.341Zm16.088,8.9h-1.8l-5.4-8.017V3.563h-1.491V-6.509h1.786l5.412,8.017V-6.509h1.49Zm10.006-8.836h-3.116V3.563h-1.49V-5.274H348.42V-6.509h7.723Zm2.283,8.836h1.491V-6.509h-1.491ZM371.049,1.83a4.281,4.281,0,0,1-3.6,1.8,5.078,5.078,0,0,1-5.117-5.1,5.078,5.078,0,0,1,5.117-5.1,4.534,4.534,0,0,1,3.6,1.8l-.913.913a3.557,3.557,0,0,0-2.82-1.477,3.755,3.755,0,0,0-3.492,3.868,3.755,3.755,0,0,0,3.492,3.868,3.347,3.347,0,0,0,2.82-1.477ZM377.361-1.9c1.4.551,2.927,1.262,2.927,2.793,0,1.947-1.813,2.726-3.625,2.74a5.188,5.188,0,0,1-3.734-1.6l.995-.994a3.739,3.739,0,0,0,2.739,1.356c1.169-.013,2.136-.416,2.136-1.41,0-.873-.927-1.235-2.511-1.907-1.3-.551-2.86-1.209-2.86-2.914,0-1.343,1.276-2.74,3.369-2.74a4.683,4.683,0,0,1,3.6,1.625L379.4-4a3.862,3.862,0,0,0-2.78-1.343c-.913,0-1.706.51-1.706,1.37C374.916-2.762,376.313-2.319,377.361-1.9ZM149.2,3.563h1.491V-6.509H149.2ZM164.968-6.509V3.563h-1.49V-4L159.6,3.563h-.846L154.869-4V3.563h-1.49V-6.509h1.934l3.854,7.789,3.855-7.789ZM175.107-2.8A3.639,3.639,0,0,1,171.562.9h-2.418V3.563h-1.49V-6.509h3.908A3.63,3.63,0,0,1,175.107-2.8ZM171.534-.332A2.3,2.3,0,0,0,173.616-2.8a2.3,2.3,0,0,0-2.081-2.471h-2.39V-.332Zm12.557,2.659V3.563h-6.568V-6.509h1.491V2.327Zm9.494,1.235-.9-2.3h-4.243l-.9,2.3h-1.571l4.136-10.072h.913l4.136,10.072ZM188.926.031H192.2l-1.639-4.15Zm17.068,3.532h-1.8l-5.4-8.017V3.563h-1.49V-6.509h1.786L204.5,1.508V-6.509h1.49Zm10-8.836h-3.115V3.563h-1.491V-5.274h-3.115V-6.509H216Zm5.64,3.371c1.4.551,2.929,1.262,2.929,2.793,0,1.947-1.813,2.726-3.627,2.74a5.187,5.187,0,0,1-3.733-1.6l.993-.994a3.739,3.739,0,0,0,2.739,1.356c1.169-.013,2.136-.416,2.136-1.41,0-.873-.927-1.235-2.511-1.907-1.3-.551-2.86-1.209-2.86-2.914,0-1.343,1.276-2.74,3.371-2.74a4.686,4.686,0,0,1,3.6,1.625L223.68-4a3.868,3.868,0,0,0-2.78-1.343c-.914,0-1.706.51-1.706,1.37C219.2-2.762,220.592-2.319,221.638-1.9Z" transform="translate(-1880.301 -191.49)" fill="#f7f2e9" fill-rule="evenodd"/>
    <path id="Path_36" data-name="Path 36" d="M101.429-4.631a2.086,2.086,0,0,1,2.084,2.085,2.086,2.086,0,0,1-2.084,2.085,2.086,2.086,0,0,1-2.085-2.085A2.086,2.086,0,0,1,101.429-4.631Zm110.3,0a2.086,2.086,0,0,1,2.084,2.085,2.086,2.086,0,0,1-2.084,2.085,2.086,2.086,0,0,1-2.084-2.085A2.086,2.086,0,0,1,211.733-4.631Zm155.721,0a2.086,2.086,0,0,1,2.086,2.085,2.086,2.086,0,0,1-2.086,2.085,2.086,2.086,0,0,1-2.084-2.085A2.086,2.086,0,0,1,367.454-4.631Z" transform="translate(-1849.943 -190.416)" fill="#dbc293" fill-rule="evenodd"/>
    <path id="Path_37" data-name="Path 37" d="M0-24.779V-54.071H.825c12.816,0,17.27,8.093,18.818,16.343,1.548-8.25,6-16.343,18.818-16.343h.825v29.292h-.011C39.123-19.26,37.467-15.34,35-12.547,31.957-9.112,27.65-7.378,23.272-6.518,27.65-5.658,31.957-3.925,35-.49c2.595,2.933,4.29,7.106,4.29,13.069v.837h-1.65V13.41A19.442,19.442,0,0,1,19.643-.741,19.443,19.443,0,0,1,1.65,13.41v.006H0V12.58C0,6.617,1.7,2.443,4.29-.49c3.039-3.435,7.346-5.168,11.723-6.028-4.377-.86-8.685-2.593-11.723-6.028C1.819-15.34.163-19.26.011-24.779ZM18.411-35.015a35.525,35.525,0,0,0-.726-4.068,18.291,18.291,0,0,0-4.982-9.3C10.2-50.708,6.651-52.233,1.657-52.384A17.968,17.968,0,0,0,18.411-35.015Zm19.218-17.37c-4.994.152-8.539,1.676-11.046,4.007a18.293,18.293,0,0,0-4.982,9.3,35.49,35.49,0,0,0-.726,4.067A17.968,17.968,0,0,0,37.629-52.384Zm.007,25.938V-45.031A19.662,19.662,0,0,1,20.7-33.327c-.227,2.653-.233,5.175-.233,7.257q0,.231,0,.454v.837h-1.65V-26.07c0-2.082-.005-4.6-.233-7.257A19.662,19.662,0,0,1,1.65-45.031v18.584A19.442,19.442,0,0,1,19.643-12.3,19.442,19.442,0,0,1,37.637-26.446ZM20.509-7.769c4.829-.606,9.9-2.093,13.26-5.9,2.245-2.538,3.708-6.107,3.856-11.106A17.952,17.952,0,0,0,20.509-7.769Zm17.115,19.5c-.148-5-1.611-8.569-3.856-11.107-3.364-3.8-8.43-5.29-13.26-5.9A17.952,17.952,0,0,0,37.624,11.735Zm-35.963,0a17.952,17.952,0,0,0,17.116-17c-4.83.606-9.9,2.093-13.26,5.9C3.273,3.166,1.809,6.736,1.662,11.735Zm0-36.506c.147,5,1.611,8.569,3.856,11.106,3.364,3.8,8.43,5.29,13.26,5.9A17.952,17.952,0,0,0,1.662-24.771Z" transform="translate(-1890.926 -201.277)" fill="#dbc293" fill-rule="evenodd"/>
    <path id="Path_38" data-name="Path 38" d="M110.908-13.187a7.631,7.631,0,0,1-3.4.571,2.966,2.966,0,0,1-2.307-1.053,4.969,4.969,0,0,1-.862-3.206q0-2.935.031-4.823a13.249,13.249,0,0,1-4.094,6.45A11.156,11.156,0,0,1,92.9-12.5a7.667,7.667,0,0,1-5.352-1.751,5.816,5.816,0,0,1-1.933-4.506A7.458,7.458,0,0,1,87.881-24a17.553,17.553,0,0,1,6.5-4,41.73,41.73,0,0,1,10.064-2.305v-2.664a8.506,8.506,0,0,0-2.1-6.062A7.468,7.468,0,0,0,96.5-41.214a7.45,7.45,0,0,0-5.236,1.956,6.713,6.713,0,0,0-1.98,5.086,7.263,7.263,0,0,0,.14,1.426,6.138,6.138,0,0,1,.146,1.028,2.013,2.013,0,0,1-.34,1.169,1.154,1.154,0,0,1-1.008.522,1.244,1.244,0,0,1-1.159-.706,3.526,3.526,0,0,1-.3-1.849.014.014,0,0,1,0,0,9.686,9.686,0,0,1,2-5.679,9.687,9.687,0,0,1,4.087-3.013,12.248,12.248,0,0,1,4.277-.866q4.757,0,7.1,2.589a9.975,9.975,0,0,1,2.351,6.979h0l-.114,14.84A6.218,6.218,0,0,0,106.9-14.9a1.585,1.585,0,0,0,1.262.783,4.809,4.809,0,0,0,1.048.042l.118-.01a3.837,3.837,0,0,0,2.186-.878,3.977,3.977,0,0,0,1.365-2.834.633.633,0,0,1,.017-.121v-20.31a1.3,1.3,0,0,0-.338-1.036.9.9,0,0,0-.6-.184,4.624,4.624,0,0,0-.765.11l-1.65.455a.149.149,0,0,1-.13-.025.15.15,0,0,1-.059-.119v-.571a.15.15,0,0,1,.1-.14l5.366-2a.148.148,0,0,1,.137.017.149.149,0,0,1,.065.123v4.1a8.274,8.274,0,0,1,2.03-3.1,5.655,5.655,0,0,1,4.041-1.554,4.361,4.361,0,0,1,3.158,1.3,4.367,4.367,0,0,1,1.444,2.778v.183a1.434,1.434,0,0,1-.425,1.171,1.155,1.155,0,0,1-.752.235,1.166,1.166,0,0,1-.851-.4A3.509,3.509,0,0,1,123.01-38l0-.008a4.554,4.554,0,0,0-1.216-1.936,2.624,2.624,0,0,0-1.838-.759,3.42,3.42,0,0,0-2.9,1.508,9.494,9.494,0,0,0-1.574,3.485,14.484,14.484,0,0,0-.453,3.077v16.1a2.511,2.511,0,0,0,.466,1.8,2.061,2.061,0,0,0,1.334.5h0l2.055.171a.15.15,0,0,1,.137.149v.571a.15.15,0,0,1-.15.15Zm-17.1-1.156a9.178,9.178,0,0,0,5.253-1.573,11.3,11.3,0,0,0,3.746-4.339,15.386,15.386,0,0,0,1.582-6.332h0q.054-1.034.057-2.9-8.781,1.363-12.663,4.142c-2.578,1.849-3.876,3.907-3.876,6.186A4.386,4.386,0,0,0,89.458-15.7,6.394,6.394,0,0,0,93.812-14.342Zm-46.522.114a4.036,4.036,0,0,0,2.065-.575,2.246,2.246,0,0,0,.76-2.015V-50.439a2.213,2.213,0,0,0-.734-1.96,4.354,4.354,0,0,0-2.1-.631L45-53.2a.15.15,0,0,1-.139-.149v-.571a.15.15,0,0,1,.15-.15h6.507a.15.15,0,0,1,.14.1l13.673,37.3,13.616-37.3a.15.15,0,0,1,.14-.1h6.165a.15.15,0,0,1,.15.15v.571a.15.15,0,0,1-.139.149l-2.283.171a4.355,4.355,0,0,0-2.1.631,2.213,2.213,0,0,0-.733,1.96v33.621a2.246,2.246,0,0,0,.76,2.015,4.036,4.036,0,0,0,2.065.575h0l2.8.171a.15.15,0,0,1,.141.149v.571a.15.15,0,0,1-.15.15h-13.3a.15.15,0,0,1-.15-.15v-.571a.15.15,0,0,1,.14-.149l2.681-.171a4.352,4.352,0,0,0,2.1-.631,2.213,2.213,0,0,0,.733-1.96V-48.125l-12.781,34.9a.15.15,0,0,1-.14.1h-.913a.15.15,0,0,1-.14-.1l-12.781-34.9v31.306a2.213,2.213,0,0,0,.733,1.96,4.352,4.352,0,0,0,2.1.631l2.681.171a.15.15,0,0,1,.14.149v.571a.15.15,0,0,1-.15.15H44.5a.15.15,0,0,1-.15-.15v-.571a.15.15,0,0,1,.141-.149l2.8-.171Zm78.958,0a2.061,2.061,0,0,0,1.333-.5,2.5,2.5,0,0,0,.467-1.8V-46.806a1.428,1.428,0,0,0-.251-.932.9.9,0,0,0-.729-.288l-.724.111-2.106.512a.148.148,0,0,1-.127-.028.15.15,0,0,1-.058-.118v-.571a.149.149,0,0,1,.1-.141l5.823-2.055a.148.148,0,0,1,.136.019.15.15,0,0,1,.064.122v33.641a2.511,2.511,0,0,0,.466,1.8,2.061,2.061,0,0,0,1.334.5h0l2.054.171a.15.15,0,0,1,.138.149v.571a.15.15,0,0,1-.15.15H124.2a.15.15,0,0,1-.15-.15v-.571a.15.15,0,0,1,.137-.149l2.056-.171Zm28.032.2a13.071,13.071,0,0,1-7.077,1.286,14.456,14.456,0,0,1-6.857-2.5A14.619,14.619,0,0,1,135.4-21.08a16,16,0,0,1-1.663-7.582,14.164,14.164,0,0,1,2.1-7.108,12.66,12.66,0,0,1,5.352-4.845,12.931,12.931,0,0,1,7.129-1.247,14.41,14.41,0,0,1,6.92,2.634,15.266,15.266,0,0,1,4.958,5.922,15.471,15.471,0,0,1,1.625,7.507,13.885,13.885,0,0,1-2.159,6.98A12.926,12.926,0,0,1,154.281-14.027Zm-.4-.834a9.8,9.8,0,0,0,4.31-4.126,12.766,12.766,0,0,0,1.6-6.329,15.687,15.687,0,0,0-1.664-6.987,15.4,15.4,0,0,0-4.549-5.616,13.439,13.439,0,0,0-6.116-2.711,9.743,9.743,0,0,0-5.9.8,9.3,9.3,0,0,0-4.2,4.162,13.721,13.721,0,0,0-1.539,6.461,15.816,15.816,0,0,0,1.663,7.051,15.229,15.229,0,0,0,4.511,5.6,12.761,12.761,0,0,0,5.989,2.582A10.018,10.018,0,0,0,153.876-14.861Zm8.441-22.962A4.647,4.647,0,0,0,161-39.787a3.619,3.619,0,0,0-1.808-.628l-1.653-.114a.15.15,0,0,1-.139-.149v-.628a.15.15,0,0,1,.15-.15h9.761a.15.15,0,0,1,.149.15v.628a.149.149,0,0,1-.141.15l-1.94.114a1.433,1.433,0,0,0-.89.33,1.021,1.021,0,0,0-.282.777,2.368,2.368,0,0,0,.215.967l0,0,8.94,21.594,5.314-12.119-3.8-8.9v0a4.656,4.656,0,0,0-1.32-2.019,3.62,3.62,0,0,0-1.808-.628l-1.766-.114a.15.15,0,0,1-.141-.149v-.628a.15.15,0,0,1,.15-.15h19.122a.15.15,0,0,1,.15.15v.628a.151.151,0,0,1-.139.149l-2.281.171a3.715,3.715,0,0,0-1.809.572,4.835,4.835,0,0,0-1.32,1.965h0l-3.4,7.533,5.607,13.545,9.505-21.485,0-.006a2.386,2.386,0,0,0,.269-1.075.881.881,0,0,0-.185-.58,1.465,1.465,0,0,0-1.048-.412l-2.626-.228a.149.149,0,0,1-.137-.149v-.628a.15.15,0,0,1,.15-.15h9.761a.15.15,0,0,1,.149.15v.628a.15.15,0,0,1-.138.149l-2.283.171a3.619,3.619,0,0,0-1.752.572,4.834,4.834,0,0,0-1.32,1.965L185.425-13.276a.152.152,0,0,1-.139.089.149.149,0,0,1-.136-.092l-6.03-14.4-6.253,14.4a.15.15,0,0,1-.138.09.152.152,0,0,1-.138-.092Zm20.549-.4h0a4.836,4.836,0,0,0,.388-1.311.771.771,0,0,0-.587-.744,7.81,7.81,0,0,0-2.4-.247h-.741a9.4,9.4,0,0,0-2.5.221c-.4.126-.609.315-.609.6a2.024,2.024,0,0,0,.189.656q.2.478.309.7a.031.031,0,0,1,0,.009l2.892,6.876ZM335.03-13.187a7.626,7.626,0,0,1-3.4.571,2.965,2.965,0,0,1-2.307-1.053,4.966,4.966,0,0,1-.863-3.206q0-2.935.031-4.823a13.259,13.259,0,0,1-4.094,6.45A11.159,11.159,0,0,1,317.02-12.5a7.668,7.668,0,0,1-5.352-1.751,5.818,5.818,0,0,1-1.932-4.506A7.457,7.457,0,0,1,312-24a17.549,17.549,0,0,1,6.505-4,41.718,41.718,0,0,1,10.064-2.305v-2.664a8.505,8.505,0,0,0-2.1-6.062,7.467,7.467,0,0,0-5.853-2.179,7.447,7.447,0,0,0-5.235,1.956,6.713,6.713,0,0,0-1.981,5.086,7.217,7.217,0,0,0,.141,1.426,6.207,6.207,0,0,1,.145,1.028,2.021,2.021,0,0,1-.34,1.169,1.156,1.156,0,0,1-1.009.522,1.243,1.243,0,0,1-1.158-.706,3.524,3.524,0,0,1-.3-1.849v0a9.682,9.682,0,0,1,2-5.679,9.683,9.683,0,0,1,4.087-3.013,12.242,12.242,0,0,1,4.276-.866q4.757,0,7.1,2.589a9.975,9.975,0,0,1,2.351,6.979h0l-.114,14.84a6.221,6.221,0,0,0,.436,2.836,1.585,1.585,0,0,0,1.263.783,4.806,4.806,0,0,0,1.048.042l.119-.01a3.837,3.837,0,0,0,2.186-.878A3.977,3.977,0,0,0,337-17.793a.638.638,0,0,1,.017-.121V-46.806a1.428,1.428,0,0,0-.251-.932.9.9,0,0,0-.729-.288l-.724.111-2.106.512a.148.148,0,0,1-.127-.028.15.15,0,0,1-.058-.118v-.571a.149.149,0,0,1,.1-.141l5.823-2.055a.148.148,0,0,1,.136.019.15.15,0,0,1,.064.122v33.641a2.51,2.51,0,0,0,.466,1.8,2.064,2.064,0,0,0,1.333.5h0l2.056.171a.15.15,0,0,1,.137.149v.571a.15.15,0,0,1-.15.15Zm-17.1-1.156a9.18,9.18,0,0,0,5.253-1.573,11.311,11.311,0,0,0,3.746-4.339,15.389,15.389,0,0,0,1.582-6.332h0q.054-1.034.056-2.9-8.781,1.363-12.663,4.142c-2.577,1.849-3.876,3.907-3.876,6.186a4.386,4.386,0,0,0,1.547,3.455A6.394,6.394,0,0,0,317.935-14.342ZM212.45-14.23a4.167,4.167,0,0,0,2.065-.63,2.375,2.375,0,0,0,.764-1.964V-50.439a.009.009,0,0,1,0-.006,2.072,2.072,0,0,0-.7-1.953,4.535,4.535,0,0,0-2.126-.632l-2.738-.171a.148.148,0,0,1-.1-.053.146.146,0,0,1-.035-.112l.056-.571a.15.15,0,0,1,.149-.135h11.474A21.557,21.557,0,0,1,232.316-51.4a17.634,17.634,0,0,1,6.907,7.138,26.094,26.094,0,0,1,2.329,10.944,21.013,21.013,0,0,1-2.183,9.421,18.487,18.487,0,0,1-6.559,7.739,18.426,18.426,0,0,1-10.588,2.966h-12.5a.15.15,0,0,1-.15-.15v-.571a.15.15,0,0,1,.141-.15Zm9.487.114a15.864,15.864,0,0,0,9.247-2.713,17.341,17.341,0,0,0,6-7.273A20.237,20.237,0,0,0,239.2-33.37c-.038-3.514-.783-7.982-2.238-10.778a15.938,15.938,0,0,0-6.278-6.561,18.807,18.807,0,0,0-9.6-2.377h-3.675v36.266a2.149,2.149,0,0,0,1.086,2.149A8.191,8.191,0,0,0,221.937-14.116ZM255.712-12.5a11.207,11.207,0,0,1-9.278-4.166q-3.31-4.145-3.315-11.224a15.716,15.716,0,0,1,1.788-7.721,12.527,12.527,0,0,1,4.593-4.88,11.521,11.521,0,0,1,5.927-1.648,10.881,10.881,0,0,1,5.352,1.36,10.981,10.981,0,0,1,3.906,3.53,8.025,8.025,0,0,1,1.451,4.507,3.8,3.8,0,0,1-.452,2.051,2.4,2.4,0,0,1-1.607.95,17.646,17.646,0,0,1-3.342.231H245.516q-.1,1.038-.1,1.677a17.553,17.553,0,0,0,1.329,6.962,11.582,11.582,0,0,0,3.776,4.9,9.368,9.368,0,0,0,5.705,1.8,8.16,8.16,0,0,0,4.795-1.429,11.494,11.494,0,0,0,3.269-3.409,15.142,15.142,0,0,0,1.724-3.787.151.151,0,0,1,.072-.091.151.151,0,0,1,.115-.012l.571.171a.147.147,0,0,1,.089.073.152.152,0,0,1,.012.114,20.26,20.26,0,0,1-3.68,6.7A9.039,9.039,0,0,1,255.712-12.5Zm4.4-17.995a5.882,5.882,0,0,0,2.828-.432c.425-.284.619-.894.619-1.816a9.114,9.114,0,0,0-.9-3.649,8.883,8.883,0,0,0-2.751-3.453,7.193,7.193,0,0,0-4.533-1.424,8.462,8.462,0,0,0-6.313,2.779q-2.642,2.752-3.444,7.995Zm8.22,16.268a2.061,2.061,0,0,0,1.333-.5,2.51,2.51,0,0,0,.467-1.8V-38.281a1.435,1.435,0,0,0-.251-.932.9.9,0,0,0-.73-.289l-.723.111-2.106.512a.151.151,0,0,1-.129-.028.15.15,0,0,1-.056-.118v-.571a.149.149,0,0,1,.1-.141l5.822-2.055a.152.152,0,0,1,.137.019.149.149,0,0,1,.063.122s0,6.059,0,6.058a8.816,8.816,0,0,1,1.677-2.846,10.889,10.889,0,0,1,3.56-2.72,9.632,9.632,0,0,1,4.2-.985,8.519,8.519,0,0,1,6.589,2.76q2.516,2.746,2.523,8.121v14.727a2.511,2.511,0,0,0,.466,1.8,2.061,2.061,0,0,0,1.333.5h0l2.054.171a.149.149,0,0,1,.137.149v.571a.149.149,0,0,1-.149.15h-9.819a.15.15,0,0,1-.149-.15v-.571a.149.149,0,0,1,.137-.149l2.056-.171h0a2.061,2.061,0,0,0,1.333-.5,2.51,2.51,0,0,0,.467-1.8V-30.86c0-3.3-.714-5.743-2.159-7.319a7.078,7.078,0,0,0-5.455-2.349,8.54,8.54,0,0,0-4.545,1.234,8.425,8.425,0,0,0-3.142,3.423,10.828,10.828,0,0,0-1.126,5.012v14.327a2.51,2.51,0,0,0,.467,1.8,2.061,2.061,0,0,0,1.333.5h0l2.054.171a.149.149,0,0,1,.137.149v.571a.149.149,0,0,1-.149.15h-9.819a.15.15,0,0,1-.149-.15v-.571a.149.149,0,0,1,.137-.149l2.056-.171ZM302.751-12.5a4.5,4.5,0,0,1-3.86-1.8,8.02,8.02,0,0,1-1.313-4.855V-40.471h-5.445a.149.149,0,0,1-.149-.15v-.685a.149.149,0,0,1,.149-.15h1.884a4.43,4.43,0,0,0,2.9-.734,3.225,3.225,0,0,0,1.005-2.159v0l.571-5.834a.151.151,0,0,1,.149-.13h.913a.15.15,0,0,1,.15.15v8.709h8.355a.149.149,0,0,1,.149.15v.685a.149.149,0,0,1-.149.15H299.7V-19.1a6.254,6.254,0,0,0,1.021,3.986,3.1,3.1,0,0,0,2.482,1.23,5.045,5.045,0,0,0,2.3-.611,6.723,6.723,0,0,0,2.094-1.676.15.15,0,0,1,.167-.044l.458.171a.151.151,0,0,1,.091.1.148.148,0,0,1-.028.133,11.032,11.032,0,0,1-2.575,2.372A5.355,5.355,0,0,1,302.751-12.5Zm86.774-8.18c-2.683,2.73-8.465,7.712-15.3,8.17a17.846,17.846,0,0,1-10.35-2.759,20.455,20.455,0,0,1-7.325-7.526,20.564,20.564,0,0,1-2.729-10.4,20.73,20.73,0,0,1,2.728-10.426,20.788,20.788,0,0,1,7.353-7.611,18.843,18.843,0,0,1,9.974-2.816,20.946,20.946,0,0,1,9.851,2.327,19.762,19.762,0,0,1,6.55,5.619c1.006,1.313,1.211,2.542.113,2.949a1.252,1.252,0,0,1-1.743-.933,8.332,8.332,0,0,0-1.868-3.511,18.148,18.148,0,0,0-5.544-4.158,16.962,16.962,0,0,0-7.016-1.366q-.566,0-1.81.113a17.321,17.321,0,0,0-8.341,3.11,17.891,17.891,0,0,0-5.685,6.675,19.591,19.591,0,0,0-2.038,8.888,19.673,19.673,0,0,0,.113,2.433v0a20.727,20.727,0,0,0,3.172,8.976,19.5,19.5,0,0,0,6.538,6.368,14.267,14.267,0,0,0,8.132,2.318,19.117,19.117,0,0,0,9.511-3.049,30.783,30.783,0,0,0,5.371-4.478,22.64,22.64,0,0,1-.76-6.1,15.716,15.716,0,0,1,1.788-7.721,12.522,12.522,0,0,1,4.594-4.88,11.515,11.515,0,0,1,5.926-1.647,10.877,10.877,0,0,1,5.352,1.36,10.98,10.98,0,0,1,3.906,3.53,8.017,8.017,0,0,1,1.452,4.507,3.784,3.784,0,0,1-.453,2.051,2.4,2.4,0,0,1-1.607.949,17.629,17.629,0,0,1-3.341.232h-15.22q-.1,1.038-.1,1.677a17.533,17.533,0,0,0,1.33,6.962,11.579,11.579,0,0,0,3.775,4.9,9.369,9.369,0,0,0,5.705,1.8,8.159,8.159,0,0,0,4.795-1.429,11.477,11.477,0,0,0,3.269-3.409,15.194,15.194,0,0,0,1.725-3.787.149.149,0,0,1,.071-.091.151.151,0,0,1,.115-.012l.571.171a.152.152,0,0,1,.09.073.151.151,0,0,1,.011.114,20.26,20.26,0,0,1-3.68,6.7,9.038,9.038,0,0,1-7.481,3.338,11.208,11.208,0,0,1-9.278-4.166A13.8,13.8,0,0,1,389.524-20.682Zm15.885-9.791a5.882,5.882,0,0,0,2.828-.432c.425-.284.619-.894.619-1.816a9.114,9.114,0,0,0-.9-3.649,8.882,8.882,0,0,0-2.751-3.453,7.192,7.192,0,0,0-4.533-1.424,8.462,8.462,0,0,0-6.313,2.779q-2.64,2.752-3.444,7.995Zm76.918,17.995a11.209,11.209,0,0,1-9.279-4.166q-3.31-4.145-3.315-11.224a15.716,15.716,0,0,1,1.788-7.721,12.522,12.522,0,0,1,4.594-4.88,11.515,11.515,0,0,1,5.926-1.647,10.874,10.874,0,0,1,5.352,1.36,10.981,10.981,0,0,1,3.906,3.53,8.017,8.017,0,0,1,1.452,4.507,3.784,3.784,0,0,1-.453,2.051,2.4,2.4,0,0,1-1.607.949,17.629,17.629,0,0,1-3.341.232H472.131q-.1,1.038-.1,1.677a17.553,17.553,0,0,0,1.33,6.962,11.579,11.579,0,0,0,3.775,4.9,9.369,9.369,0,0,0,5.705,1.8,8.159,8.159,0,0,0,4.795-1.429,11.477,11.477,0,0,0,3.269-3.409,15.15,15.15,0,0,0,1.725-3.787.147.147,0,0,1,.072-.091.147.147,0,0,1,.114-.012l.572.171a.153.153,0,0,1,.089.073.151.151,0,0,1,.011.114,20.238,20.238,0,0,1-3.68,6.7A9.037,9.037,0,0,1,482.327-12.479Zm4.395-17.995a5.882,5.882,0,0,0,2.828-.432c.426-.284.619-.894.619-1.816a9.114,9.114,0,0,0-.9-3.649,8.882,8.882,0,0,0-2.751-3.453,7.19,7.19,0,0,0-4.533-1.424,8.464,8.464,0,0,0-6.313,2.779q-2.64,2.752-3.444,7.995ZM413.629-14.205a2.062,2.062,0,0,0,1.333-.5,2.5,2.5,0,0,0,.467-1.8V-38.258a1.435,1.435,0,0,0-.251-.932.9.9,0,0,0-.729-.289l-.724.111-2.106.512a.148.148,0,0,1-.127-.028.147.147,0,0,1-.058-.118v-.571a.149.149,0,0,1,.1-.141l5.822-2.055a.15.15,0,0,1,.137.019.15.15,0,0,1,.064.122v6.058a8.818,8.818,0,0,1,1.677-2.846,10.887,10.887,0,0,1,3.56-2.72,9.632,9.632,0,0,1,4.2-.985,8.517,8.517,0,0,1,6.589,2.76q2.516,2.746,2.523,8.121V-16.51a2.511,2.511,0,0,0,.466,1.8,2.062,2.062,0,0,0,1.333.5h0l2.054.171a.15.15,0,0,1,.138.149v.571a.15.15,0,0,1-.15.15h-9.817a.15.15,0,0,1-.15-.15v-.571a.15.15,0,0,1,.137-.149l2.055-.171h0a2.062,2.062,0,0,0,1.333-.5,2.5,2.5,0,0,0,.467-1.8V-30.838c0-3.3-.714-5.743-2.159-7.319a7.078,7.078,0,0,0-5.454-2.349,8.541,8.541,0,0,0-4.546,1.234,8.425,8.425,0,0,0-3.142,3.422,10.827,10.827,0,0,0-1.124,5.012V-16.51a2.511,2.511,0,0,0,.466,1.8,2.062,2.062,0,0,0,1.333.5h0l2.054.171a.15.15,0,0,1,.138.149v.571a.15.15,0,0,1-.15.15h-9.817a.15.15,0,0,1-.15-.15v-.571a.15.15,0,0,1,.137-.149l2.056-.171Zm34.423,1.726a4.5,4.5,0,0,1-3.859-1.8,8.012,8.012,0,0,1-1.314-4.855V-40.449h-5.443a.15.15,0,0,1-.15-.15v-.685a.15.15,0,0,1,.15-.15h1.883a4.43,4.43,0,0,0,2.9-.734,3.225,3.225,0,0,0,1.006-2.159v0l.572-5.834a.149.149,0,0,1,.148-.13h.913a.15.15,0,0,1,.15.15v8.71h8.355a.15.15,0,0,1,.15.15v.685a.15.15,0,0,1-.15.15h-8.355v21.37a6.254,6.254,0,0,0,1.022,3.986,3.1,3.1,0,0,0,2.481,1.23,5.043,5.043,0,0,0,2.3-.611,6.714,6.714,0,0,0,2.1-1.676.149.149,0,0,1,.167-.044l.457.171a.149.149,0,0,1,.091.1.148.148,0,0,1-.028.133,11.029,11.029,0,0,1-2.575,2.372A5.353,5.353,0,0,1,448.053-12.479ZM470.518-37.85a1.444,1.444,0,0,1-.43,1.18,1.164,1.164,0,0,1-.759.237,1.175,1.175,0,0,1-.859-.406,3.5,3.5,0,0,1-.661-1.121.024.024,0,0,1,0-.009,4.552,4.552,0,0,0-1.212-1.929,2.611,2.611,0,0,0-1.828-.755,3.409,3.409,0,0,0-2.892,1.5,9.5,9.5,0,0,0-1.57,3.477,14.5,14.5,0,0,0-.452,3.072V-16.52a2.5,2.5,0,0,0,.462,1.793,2.048,2.048,0,0,0,1.325.5h0l2.053.171a.162.162,0,0,1,.149.162v.57a.162.162,0,0,1-.162.162h-9.809a.162.162,0,0,1-.162-.162v-.57a.162.162,0,0,1,.149-.162l2.053-.171h0a2.048,2.048,0,0,0,1.325-.5,2.494,2.494,0,0,0,.463-1.793V-38.192a1.283,1.283,0,0,0-.333-1.026.883.883,0,0,0-.589-.181,4.615,4.615,0,0,0-.76.11l-1.648.455a.162.162,0,0,1-.142-.027.16.16,0,0,1-.064-.129v-.57a.162.162,0,0,1,.106-.152l5.36-2a.162.162,0,0,1,.149.019.163.163,0,0,1,.07.133v4.029a8.254,8.254,0,0,1,2.007-3.035,5.665,5.665,0,0,1,4.047-1.556,4.373,4.373,0,0,1,3.164,1.3,4.375,4.375,0,0,1,1.445,2.784s0,.009,0,.013Z" transform="translate(-1880.301 -201.277)" fill="#f7f2e9" fill-rule="evenodd"/>
  </g>
</svg>
